<svg id="Capa_1" enable-background="new 0 0 512 512" height="512" viewBox="0 0 512 512" width="512" xmlns="http://www.w3.org/2000/svg"><g><g><path d="m406 40c-16.57 0-30 13.43-30 30v66c0 16.57-13.43 30-30 30h-30v-96c0-33.14-26.86-59.99-60-60-35.758 0-60 30.633-60 63.21v101.79c0-24.85-20.15-45-45-45-24.925 0-45 20.225-45 45v81c0-16.57-13.43-30-30-30s-30 13.43-30 30v60c0 39.19 25.04 72.53 60 84.88v101.12h300c0-35.173 0-133.855 0-171 0-24.863-20.159-45-45-45-24.85 0-45 20.15-45 45v-105h30c49.71 0 90-40.29 90-90v-66c0-16.57-13.43-30-30-30z" fill="#a7e8a6"/></g><g><path d="m256 356c5.522 0 10-4.477 10-10v-30c0-5.523-4.478-10-10-10s-10 4.477-10 10v30c0 5.523 4.478 10 10 10z"/><path d="m10 492c-5.523 0-10 4.477-10 10s4.477 10 10 10h492c5.522 0 10-4.477 10-10s-4.478-10-10-10h-86v-76.726c33.876-4.869 60-34.072 60-69.274v-30c0-5.523-4.478-10-10-10s-10 4.477-10 10v30c0 24.146-17.205 44.348-40 48.994v-63.994c0-11.299-3.396-22.071-9.685-31.173l36.756-36.757c3.905-3.905 3.905-10.237 0-14.142-3.906-3.905-10.236-3.905-14.143 0l-36.756 36.756c-9.101-6.288-19.873-9.684-31.172-9.684-13.285 0-25.484 4.735-35 12.605v-52.605h20c55.141 0 100-44.86 100-100v-66c0-22.056-17.944-40-40-40s-40 17.944-40 40v66c0 11.028-8.972 20-20 20h-20v-86c0-38.587-31.4-69.989-70-70-40.87 0-70 34.813-70 73.21v59.395c-9.516-7.87-21.715-12.605-35-12.605-3.221 0-6.406.294-9.528.845l-26.455-55.168c-2.389-4.98-8.362-7.081-13.341-4.693-4.98 2.388-7.081 8.361-4.693 13.341l25.682 53.555c-4.02 2.416-7.726 5.361-11.036 8.755l-31.156-15.578c-4.94-2.471-10.947-.468-13.417 4.472s-.468 10.947 4.472 13.417l28.887 14.443c-2.901 6.772-4.415 14.087-4.415 21.611v46.381c-5.888-3.415-12.717-5.381-20-5.381-22.056 0-40 17.944-40 40v60c0 39.916 23.839 75.889 60 91.668v84.332zm351-196c19.343 0 35 15.653 35 35v161h-70v-161c0-19.299 15.701-35 35-35zm-305 20v-60c0-11.028 8.972-20 20-20s20 8.972 20 20v60c0 22.056 17.944 40 40 40 5.523 0 10-4.477 10-10s-4.477-10-10-10c-11.028 0-20-8.972-20-20 0-22.793 0-118.767 0-141 0-19.545 15.909-35 35-35 19.299 0 35 15.701 35 35v95.999c0 5.523 4.477 10 10 10s10-4.477 10-10c0-10.188 0-186.929 0-197.789 0-25.529 17.098-47.685 40-52.232v235.022c0 5.523 4.478 10 10 10s10-4.477 10-10v-234.991c22.794 4.652 40 24.852 40 48.991v96c0 5.523 4.478 10 10 10h30c22.056 0 40-17.944 40-40v-66c0-11.028 8.972-20 20-20s20 8.972 20 20v66c0 44.112-35.888 80-80 80h-30c-5.522 0-10 4.477-10 10v266h-100v-130.999c0-5.523-4.477-10-10-10s-10 4.477-10 10v130.999h-70v-78.016c6.544 1.329 13.229 2.016 20 2.016 5.523 0 10-4.477 10-10s-4.477-10-10-10c-44.609 0-80-36.282-80-80z"/><circle cx="196.001" cy="316" r="10"/></g></g></svg>