<?xml version="1.0" encoding="iso-8859-1"?>
<!-- Generator: Adobe Illustrator 19.0.0, SVG Export Plug-In . SVG Version: 6.00 Build 0)  -->
<svg version="1.1" id="Capa_1" xmlns="http://www.w3.org/2000/svg" xmlns:xlink="http://www.w3.org/1999/xlink" x="0px" y="0px"
	 viewBox="0 0 469.333 469.333" style="enable-background:new 0 0 469.333 469.333;" xml:space="preserve">
<g>
	<g>
		<g>
			<path d="M309.333,320c-5.896,0-10.667,4.771-10.667,10.667v10.667H288c-5.896,0-10.667,4.771-10.667,10.667
				c0,5.896,4.771,10.667,10.667,10.667h21.333c5.896,0,10.667-4.771,10.667-10.667v-21.333C320,324.771,315.229,320,309.333,320z"
				/>
			<path d="M249.604,341.333h-38.396c-5.896,0-10.667,4.771-10.667,10.667c0,5.896,4.771,10.667,10.667,10.667h38.396
				c5.896,0,10.667-4.771,10.667-10.667C260.271,346.104,255.5,341.333,249.604,341.333z"/>
			<path d="M172.812,341.333h-38.417c-5.896,0-10.667,4.771-10.667,10.667c0,5.896,4.771,10.667,10.667,10.667h38.417
				c5.896,0,10.667-4.771,10.667-10.667C183.479,346.104,178.708,341.333,172.812,341.333z"/>
			<path d="M96,341.333H85.333v-10.667c0-5.896-4.771-10.667-10.667-10.667S64,324.771,64,330.667V352
				c0,5.896,4.771,10.667,10.667,10.667H96c5.896,0,10.667-4.771,10.667-10.667C106.667,346.104,101.896,341.333,96,341.333z"/>
			<path d="M74.667,298.667c5.896,0,10.667-4.771,10.667-10.667v-42.667c0-5.896-4.771-10.667-10.667-10.667S64,239.437,64,245.333
				V288C64,293.896,68.771,298.667,74.667,298.667z"/>
			<path d="M74.667,213.333c5.896,0,10.667-4.771,10.667-10.667V160c0-5.896-4.771-10.667-10.667-10.667S64,154.104,64,160v42.667
				C64,208.562,68.771,213.333,74.667,213.333z"/>
			<path d="M96,85.333H74.667C68.771,85.333,64,90.104,64,96v21.333C64,123.229,68.771,128,74.667,128s10.667-4.771,10.667-10.667
				v-10.667H96c5.896,0,10.667-4.771,10.667-10.667C106.667,90.104,101.896,85.333,96,85.333z"/>
			<path d="M249.604,85.333h-38.417c-5.896,0-10.667,4.771-10.667,10.667c0,5.896,4.771,10.667,10.667,10.667h38.417
				c5.896,0,10.667-4.771,10.667-10.667C260.271,90.104,255.5,85.333,249.604,85.333z"/>
			<path d="M134.396,106.667h38.396c5.896,0,10.667-4.771,10.667-10.667c0-5.896-4.771-10.667-10.667-10.667h-38.396
				c-5.896,0-10.667,4.771-10.667,10.667C123.729,101.896,128.5,106.667,134.396,106.667z"/>
			<path d="M309.333,85.333H288c-5.896,0-10.667,4.771-10.667,10.667c0,5.896,4.771,10.667,10.667,10.667h10.667v10.667
				c0,5.896,4.771,10.667,10.667,10.667c5.896,0,10.667-4.771,10.667-10.667V96C320,90.104,315.229,85.333,309.333,85.333z"/>
			<path d="M309.333,149.333c-5.896,0-10.667,4.771-10.667,10.667v42.667c0,5.896,4.771,10.667,10.667,10.667
				c5.896,0,10.667-4.771,10.667-10.667V160C320,154.104,315.229,149.333,309.333,149.333z"/>
			<path d="M309.333,234.667c-5.896,0-10.667,4.771-10.667,10.667V288c0,5.896,4.771,10.667,10.667,10.667
				c5.896,0,10.667-4.771,10.667-10.667v-42.667C320,239.437,315.229,234.667,309.333,234.667z"/>
			<path d="M400,74.667h-16V32c0-17.646-14.354-32-32-32H32C14.354,0,0,14.354,0,32v298.667C0,381.551,27.633,426,68.602,450.125
				c-2.716,1.932-4.602,4.951-4.602,8.542c0,5.896,4.771,10.667,10.667,10.667h234.667c5.896,0,10.667-4.771,10.667-10.667
				c0-3.591-1.885-6.609-4.602-8.542C356.367,426,384,381.551,384,330.667h16c33.521,0,69.333-28.021,69.333-106.667v-42.667
				C469.333,102.687,433.521,74.667,400,74.667z M362.667,330.667c0,64.698-52.646,117.333-117.333,117.333H138.667
				c-64.688,0-117.333-52.635-117.333-117.333V32c0-5.885,4.792-10.667,10.667-10.667h320c5.875,0,10.667,4.781,10.667,10.667
				V330.667z M448,224c0,52.635-18.396,85.333-48,85.333c-5.333,0-10.694-2.435-16-6.98V102.98c5.306-4.546,10.667-6.98,16-6.98
				c29.604,0,48,32.698,48,85.333V224z"/>
		</g>
	</g>
</g>
<g>
</g>
<g>
</g>
<g>
</g>
<g>
</g>
<g>
</g>
<g>
</g>
<g>
</g>
<g>
</g>
<g>
</g>
<g>
</g>
<g>
</g>
<g>
</g>
<g>
</g>
<g>
</g>
<g>
</g>
</svg>
