<?xml version="1.0" encoding="iso-8859-1"?>
<!-- Generator: Adobe Illustrator 19.0.0, SVG Export Plug-In . SVG Version: 6.00 Build 0)  -->
<svg version="1.1" id="Capa_1" xmlns="http://www.w3.org/2000/svg" xmlns:xlink="http://www.w3.org/1999/xlink" x="0px" y="0px"
	 viewBox="0 0 480 480" style="enable-background:new 0 0 480 480;" xml:space="preserve">
<g>
	<g>
		<g>
			<path d="M304,408v-40h-16v32h-32v16h40C300.418,416,304,412.418,304,408z"/>
			<path d="M408,112h-72v-8c0-4.418-3.582-8-8-8H40c-4.418,0-8,3.582-8,8v320c0.042,10.134,6.445,19.15,16,22.528V456
				c0,13.255,10.745,24,24,24h224c13.255,0,24-10.745,24-24v-9.472c9.555-3.378,15.958-12.394,16-22.528V288h72
				c22.08-0.026,39.974-17.92,40-40v-96C447.974,129.92,430.08,112.026,408,112z M304,456c0,4.418-3.582,8-8,8H72
				c-4.418,0-8-3.582-8-8v-8h240V456z M320,424c0,4.418-3.582,8-8,8H56c-4.418,0-8-3.582-8-8V112h272V424z M336,160h56
				c4.418,0,8,3.582,8,8v64c0,4.418-3.582,8-8,8h-56V160z M432,248c0,13.255-10.745,24-24,24h-72v-16h56c13.255,0,24-10.745,24-24
				v-64c0-13.255-10.745-24-24-24h-56v-16h72c13.255,0,24,10.745,24,24V248z"/>
			<path d="M169.6,80h16c0-3.288,1.072-4.568,4.176-7.8c10.427-9.03,11.56-24.804,2.529-35.231
				c-0.782-0.902-1.627-1.748-2.529-2.529c-3.104-3.2-4.176-4.512-4.176-7.8c0-3.288,1.072-4.552,4.168-7.776
				C195.223,14.109,198.367,7.236,198.4,0h-16c0,3.272-1.072,4.552-4.168,7.776c-10.423,9.015-11.564,24.773-2.549,35.195
				c0.787,0.91,1.639,1.762,2.549,2.549c3.104,3.2,4.176,4.512,4.176,7.8c0,3.288-1.072,4.568-4.176,7.8
				C172.777,65.881,169.632,72.759,169.6,80z"/>
			<path d="M122.88,80h16c0-1.936,0.472-2.6,2.888-5.112c8.949-7.841,9.847-21.452,2.006-30.402
				c-0.624-0.712-1.294-1.382-2.006-2.006c-2.296-2.4-2.896-3.104-2.896-5.136s0.6-2.744,2.896-5.136
				c4.642-4.113,7.316-10.006,7.352-16.208h-16c0,2.032-0.6,2.744-2.896,5.136c-8.951,7.852-9.843,21.474-1.991,30.425
				c0.619,0.706,1.284,1.371,1.991,1.991c2.296,2.4,2.896,3.104,2.896,5.136s-0.472,2.6-2.888,5.112
				C125.587,67.907,122.913,73.8,122.88,80z"/>
			<path d="M218.88,80h16c0-1.936,0.472-2.6,2.888-5.112c8.949-7.841,9.847-21.452,2.006-30.402
				c-0.624-0.712-1.294-1.382-2.006-2.006c-2.296-2.4-2.896-3.104-2.896-5.136s0.6-2.744,2.896-5.136
				c4.642-4.113,7.316-10.006,7.352-16.208h-16c0,2.032-0.6,2.744-2.896,5.136c-8.951,7.852-9.843,21.474-1.991,30.425
				c0.619,0.706,1.284,1.371,1.991,1.991c2.296,2.4,2.896,3.104,2.896,5.136s-0.472,2.6-2.888,5.112
				C221.587,67.907,218.913,73.8,218.88,80z"/>
		</g>
	</g>
</g>
<g>
</g>
<g>
</g>
<g>
</g>
<g>
</g>
<g>
</g>
<g>
</g>
<g>
</g>
<g>
</g>
<g>
</g>
<g>
</g>
<g>
</g>
<g>
</g>
<g>
</g>
<g>
</g>
<g>
</g>
</svg>
