<svg height="512" viewBox="0 0 128 128" width="512" xmlns="http://www.w3.org/2000/svg"><g><path d="m87.227 94.928a1.751 1.751 0 0 0 -1.861 1.632l-.893 13.651a1.749 1.749 0 0 0 1.631 1.861h.117a1.75 1.75 0 0 0 1.744-1.636l.893-13.651a1.749 1.749 0 0 0 -1.631-1.857z"/><path d="m103.808 17.721h-5.514l-6.104-12.013a1.748 1.748 0 0 0 -1.56-.958h-53.25a1.752 1.752 0 0 0 -1.56.957l-6.113 12.014h-5.515a1.751 1.751 0 0 0 -1.75 1.75v6a1.75 1.75 0 0 0 1.75 1.75h4.369l1.139 17.379v.026l4.681 71.38a7.775 7.775 0 0 0 7.736 7.244h43.763a7.775 7.775 0 0 0 7.736-7.25l4.684-71.373c0-.009 0-.018 0-.027v-.006l1.14-17.373h4.369a1.75 1.75 0 0 0 1.75-1.75v-6a1.751 1.751 0 0 0 -1.751-1.75zm-65.355-9.471h51.1l4.812 9.471h-60.731zm53.624 77.75h-56.154l-2.6-39.65h61.354zm-1.953 29.774a4.267 4.267 0 0 1 -4.244 3.976h-43.76a4.267 4.267 0 0 1 -4.244-3.974l-1.723-26.276h55.694zm4.782-72.924h-61.812l-1.025-15.629h63.862zm7.152-19.129h-76.116v-2.5h76.116z"/><path d="m64 78.925c5.445 0 9.875-5.72 9.875-12.75s-4.43-12.75-9.875-12.75-9.875 5.72-9.875 12.75 4.43 12.75 9.875 12.75zm0-22c3.456 0 6.375 4.236 6.375 9.25s-2.919 9.25-6.375 9.25-6.375-4.236-6.375-9.25 2.919-9.25 6.375-9.25z"/></g></svg>