<?xml version="1.0" encoding="iso-8859-1"?>
<!-- Generator: Adobe Illustrator 19.0.0, SVG Export Plug-In . SVG Version: 6.00 Build 0)  -->
<svg version="1.1" id="Capa_1" xmlns="http://www.w3.org/2000/svg" xmlns:xlink="http://www.w3.org/1999/xlink" x="0px" y="0px"
	 viewBox="0 0 511.999 511.999" style="enable-background:new 0 0 511.999 511.999;" xml:space="preserve">
<g>
	<g>
		<path d="M406.976,121.203h-8.74c-0.523-15.702-1.625-31.339-3.323-46.696l-1.476-13.352H5.159L3.682,74.507
			C1.239,96.601,0,119.273,0,141.895c0,65.221,7.788,126.69,22.52,177.761c7.67,26.588,17.259,50.661,28.5,71.548
			c11.793,21.915,25.534,40.556,40.839,55.406l4.364,4.234h206.148l4.364-4.234c15.306-14.85,29.046-33.491,40.839-55.406
			c9.582-17.806,17.958-37.932,24.975-59.952h34.426c57.91,0,105.024-47.114,105.024-105.024
			C511.999,168.318,464.886,121.203,406.976,121.203z M290.044,420.844H108.55C58.558,368.479,30,267.368,30,141.895
			c0-16.987,0.733-33.999,2.185-50.739H366.41c1.451,16.744,2.185,33.754,2.185,50.739
			C368.595,267.368,340.037,368.479,290.044,420.844z M395.543,211.203h11.433c8.284,0,15.024,6.74,15.024,15.024
			s-6.74,15.024-15.024,15.024h-14.794C393.506,231.425,394.625,221.398,395.543,211.203z M406.976,301.252h-26.007
			c2.376-9.696,4.519-19.71,6.426-30h19.581c24.826,0,45.024-20.198,45.024-45.024c0-24.827-20.198-45.024-45.024-45.024h-9.348
			c0.489-9.885,0.792-19.893,0.908-30h8.44c41.368,0,75.024,33.656,75.024,75.024C482,267.596,448.344,301.252,406.976,301.252z"/>
	</g>
</g>
<g>
</g>
<g>
</g>
<g>
</g>
<g>
</g>
<g>
</g>
<g>
</g>
<g>
</g>
<g>
</g>
<g>
</g>
<g>
</g>
<g>
</g>
<g>
</g>
<g>
</g>
<g>
</g>
<g>
</g>
</svg>
