<svg height="512" viewBox="0 0 60 60" width="512" xmlns="http://www.w3.org/2000/svg"><g id="Page-1" fill="none" fill-rule="evenodd"><g id="015---Alarm" fill-rule="nonzero"><g id="Icons_copy" transform="translate(1 19)"><path id="Shape" d="m53 5h-48c-2.76142375 0-5 2.23857625-5 5v20c0 1.3260824.5267842 2.597852 1.46446609 3.5355339.9376819.9376819 2.20945146 1.4644661 3.53553391 1.4644661h48c2.7614237 0 5-2.2385763 5-5v-20c0-2.76142375-2.2385763-5-5-5zm1 25c0 .5522847-.4477153 1-1 1h-48c-.55228475 0-1-.4477153-1-1v-20c0-.55228475.44771525-1 1-1h48c.5522847 0 1 .44771525 1 1z" fill="#f44335"/><path id="Shape" d="m53 5h-3c2.7614237 0 5 2.23857625 5 5v20c0 2.7614237-2.2385763 5-5 5h3c2.7614237 0 5-2.2385763 5-5v-20c0-1.32608245-.5267842-2.59785201-1.4644661-3.53553391-.9376819-.93768189-2.2094515-1.46446609-3.5355339-1.46446609z" fill="#c81e1e"/><rect id="Rectangle-path" fill="#ffdc00" height="22" rx="1" width="50" x="4" y="9"/><path id="Shape" d="m53 9h-3c.5522847 0 1 .44771525 1 1v20c0 .5522847-.4477153 1-1 1h3c.5522847 0 1-.4477153 1-1v-20c0-.55228475-.4477153-1-1-1z" fill="#fec108"/><path id="Shape" d="m17.36 40h-9.72c-.96861606.0185624-1.81126303-.6597685-2-1.61l-.64-3.39h15l-.68 3.39c-.1859544.9353078-1.0063863 1.609234-1.96 1.61z" fill="#607d8b"/><path id="Shape" d="m17 35-.68 3.39c-.188737.9502315-1.0313839 1.6285624-2 1.61h3c.9686161.0185624 1.811263-.6597685 2-1.61l.68-3.39z" fill="#37474f"/><path id="Shape" d="m50.36 40h-9.72c-.9686161.0185624-1.811263-.6597685-2-1.61l-.64-3.39h15l-.68 3.39c-.1859544.9353078-1.0063863 1.609234-1.96 1.61z" fill="#607d8b"/><path id="Shape" d="m50 35-.68 3.39c-.188737.9502315-1.0313839 1.6285624-2 1.61h3c.9686161.0185624 1.811263-.6597685 2-1.61l.68-3.39z" fill="#37474f"/><path id="Shape" d="m50 5h-42l4.12-4.12c.5620694-.56276995 1.3246186-.87929979 2.12-.88h29.52c.7953814.00070021 1.5579306.31723005 2.12.88z" fill="#ff9801"/><path id="Shape" d="m45.88.88c-.5620694-.56276995-1.3246186-.87929979-2.12-.88h-3c.7953814.00070021 1.5579306.31723005 2.12.88l4.12 4.12h3z" fill="#f57c00"/></g><g id="Layer_2" fill="#000"><path id="Shape" d="m54 23h-2.59l-3.82-3.83c-.7507884-.7499543-1.7688148-1.1708345-2.83-1.17h-29.52c-1.0611852-.0008345-2.0792116.4200457-2.83 1.17l-3.82 3.83h-2.59c-3.3137085 0-6 2.6862915-6 6v20c.00115418 2.9921311 2.20663579 5.5260887 5.17 5.94l.53 2.65c.28101281 1.4009741 1.51112065 2.4093278 2.94 2.41h9.72c1.4288793-.0006722 2.6589872-1.0090259 2.94-2.41l.52-2.59h16.36l.52 2.59c.2810128 1.4009741 1.5111207 2.4093278 2.94 2.41h9.72c1.4288793-.0006722 2.6589872-1.0090259 2.94-2.41l.53-2.65c2.9633642-.4139113 5.1688458-2.9478689 5.17-5.94v-20c0-3.3137085-2.6862915-6-6-6zm-40.17-2.41c.3733503-.3755878.8804232-.5877672 1.41-.59h29.52c.5295768.0022328 1.0366497.2144122 1.41.59l2.42 2.41h-37.18zm5.51 36.61c-.0964736.4731232-.5172392.8097357-1 .8h-9.7c-.48276076.0097357-.90352637-.3268768-1-.8l-.42-2.2h12.56zm33 0c-.0964736.4731232-.5172392.8097357-1 .8h-9.7c-.4827608.0097357-.9035264-.3268768-1-.8l-.42-2.2h12.56zm5.66-8.2c0 2.209139-1.790861 4-4 4h-48c-2.209139 0-4-1.790861-4-4v-20c0-2.209139 1.790861-4 4-4h48c2.209139 0 4 1.790861 4 4z"/><path id="Shape" d="m54 27h-48c-1.1045695 0-2 .8954305-2 2v20c0 1.1045695.8954305 2 2 2h48c1.1045695 0 2-.8954305 2-2v-20c0-1.1045695-.8954305-2-2-2zm0 22h-48v-20h48z"/><path id="Shape" d="m11 47h3c1.6568542 0 3-1.3431458 3-3v-10c0-1.6568542-1.3431458-3-3-3h-3c-1.65685425 0-3 1.3431458-3 3v10c0 1.6568542 1.34314575 3 3 3zm-1-13c0-.5522847.4477153-1 1-1h3c.5522847 0 1 .4477153 1 1v10c0 .5522847-.4477153 1-1 1h-3c-.5522847 0-1-.4477153-1-1z"/><path id="Shape" d="m35 47h3c1.6568542 0 3-1.3431458 3-3v-10c0-1.6568542-1.3431458-3-3-3h-3c-1.6568542 0-3 1.3431458-3 3v10c0 1.6568542 1.3431458 3 3 3zm-1-13c0-.5522847.4477153-1 1-1h3c.5522847 0 1 .4477153 1 1v10c0 .5522847-.4477153 1-1 1h-3c-.5522847 0-1-.4477153-1-1z"/><path id="Shape" d="m46 47h3c1.6568542 0 3-1.3431458 3-3v-10c0-1.6568542-1.3431458-3-3-3h-3c-1.6568542 0-3 1.3431458-3 3v10c0 1.6568542 1.3431458 3 3 3zm-1-13c0-.5522847.4477153-1 1-1h3c.5522847 0 1 .4477153 1 1v10c0 .5522847-.4477153 1-1 1h-3c-.5522847 0-1-.4477153-1-1z"/><path id="Shape" d="m22 47h3c1.6568542 0 3-1.3431458 3-3v-3c0-1.6568542-1.3431458-3-3-3h-3c-.3405664-.0005052-.6787324.056983-1 .17v-4.17c0-.5522847.4477153-1 1-1h3c.5522847 0 1 .4477153 1 1s.4477153 1 1 1 1-.4477153 1-1c0-1.6568542-1.3431458-3-3-3h-3c-1.6568542 0-3 1.3431458-3 3v10c0 1.6568542 1.3431458 3 3 3zm-1-6c0-.5522847.4477153-1 1-1h3c.5522847 0 1 .4477153 1 1v3c0 .5522847-.4477153 1-1 1h-3c-.5522847 0-1-.4477153-1-1z"/><circle id="Oval" cx="30" cy="36" r="1"/><circle id="Oval" cx="30" cy="43" r="1"/><path id="Shape" d="m11.12 6c-.2647999-.03146514-.5311993.04413469-.74.21l-4.09 3.28-3.42-6c-.17863279-.31082107-.50951737-.50273212-.86801271-.50344212-.35849533-.00071-.69013747.18988893-.87000001.50000001-.17986254.31011107-.18062008.69262105-.00198728 1.00344211l4 7c.14614579.2512125.39435137.4264165.68.48.2862436.054531.58203471-.0185039.81-.2l4.21-3.37 6.38 8.2c.2087685.3078935.57119.4744549.9408003.4323723.3696102-.0420825.6853128-.2858528.8195237-.6327968.134211-.3469439.0647453-.7397118-.180324-1.0195755l-7-9c-.163634-.21104811-.4048858-.3478775-.67-.38z"/><path id="Shape" d="m41.39 16.79c.436601.3358001 1.0625433.2553218 1.4-.18l6.38-8.2 4.21 3.37c.2279653.1814961.5237564.254531.81.2.2856486-.0535835.5338542-.2287875.68-.48l4-7c.1786328-.31082106.1778752-.69333103-.0019873-1.0034421s-.5115047-.50070999-.87-.5-.6893799.19262104-.8680127.5034421l-3.42 6-4.08-3.28c-.2098024-.17204245-.4805068-.25144907-.75-.22-.2651142.0321225-.506366.16895189-.67.38l-7 9c-.1644457.2103398-.2379492.4777062-.2041394.7425497.0338098.2648436.1721251.5051692.3841394.6674503z"/><path id="Shape" d="m23 15c.1568771.0018772.3116796-.0359634.45-.11.490313-.2495756.6869243-.8483464.44-1.34l-6-12c-.1440974-.34603864-.4696151-.58243228-.8432591-.61238167s-.73266.15157553-.9300368.47024333c-.1973769.3186678-.1999648.72095757-.0067041 1.04213834l6 12c.1694502.3362797.5134418.5488587.89.55z"/><path id="Shape" d="m43.45 1.11c-.4916536-.2469243-1.0904244-.05031299-1.34.44l-6 12c-.2469243.4916536-.050313 1.0904244.44 1.34.1383204.0740366.2931229.1118772.45.11.3765582-.0011413.7205498-.2137203.89-.55l6-12c.2469243-.49165355.050313-1.09042437-.44-1.34z"/><path id="Shape" d="m31 13v-12c0-.55228475-.4477153-1-1-1s-1 .44771525-1 1v12c0 .5522847.4477153 1 1 1s1-.4477153 1-1z"/></g></g></g></svg>