<svg height="480pt" viewBox="0 0 480 480" width="480pt" xmlns="http://www.w3.org/2000/svg"><path d="m72 8h336c35.347656 0 64 28.652344 64 64v336c0 35.347656-28.652344 64-64 64h-336c-35.347656 0-64-28.652344-64-64v-336c0-35.347656 28.652344-64 64-64zm0 0" fill="#ee1442"/><path d="m40 16.632812c-19.792969 11.410157-31.996094 32.519532-32 55.367188v40h32zm0 0" fill="#ce1743"/><path d="m8 112v296c0 35.347656 28.652344 64 64 64h336c35.347656 0 64-28.652344 64-64v-296zm0 0" fill="#33b1a2"/><path d="m40 408v-296h-32v296c0 35.347656 28.652344 64 64 64h336c22.847656-.003906 43.957031-12.207031 55.367188-32h-391.367188c-17.671875 0-32-14.328125-32-32zm0 0" fill="#2e9989"/><path d="m176 40h128c17.671875 0 32 14.328125 32 32v64c0 17.671875-14.328125 32-32 32h-128c-17.671875 0-32-14.328125-32-32v-64c0-17.671875 14.328125-32 32-32zm0 0" fill="#c5dddc"/><path d="m328 144h-144c-8.835938 0-16-7.164062-16-16v-80c.015625-2.402344.308594-4.796875.863281-7.136719-14.527343 3.324219-24.835937 16.234375-24.863281 31.136719v64c0 17.671875 14.328125 32 32 32h128c14.902344-.027344 27.8125-10.335938 31.136719-24.863281-2.339844.554687-4.734375.847656-7.136719.863281zm0 0" fill="#88d3d1"/><path d="m305.894531 238.398438c8.007813-29.871094 38.714844-47.601563 68.589844-39.59375 29.875 8.003906 47.601563 38.714843 39.59375 68.585937l-52.726563 134.953125c-5.851562 21.179688-27.6875 33.671875-48.90625 27.988281-21.222656-5.6875-33.886718-27.425781-28.367187-48.691406zm0 0" fill="#ee1442"/><path d="m182.105469 238.398438c-8.007813-29.871094-38.714844-47.601563-68.589844-39.59375-29.875 8.003906-47.601563 38.714843-39.59375 68.585937l52.726563 134.953125c5.851562 21.179688 27.6875 33.671875 48.90625 27.988281 21.222656-5.6875 33.886718-27.425781 28.367187-48.691406zm0 0" fill="#ee1442"/><path d="m440 80c-4.417969 0-8-3.582031-8-8 0-13.253906-10.746094-24-24-24-4.417969 0-8-3.582031-8-8s3.582031-8 8-8c22.082031.027344 39.972656 17.917969 40 40 0 4.417969-3.582031 8-8 8zm0 0" fill="#ff6283"/><path d="m40 80c-4.417969 0-8-3.582031-8-8 .027344-22.082031 17.917969-39.972656 40-40 4.417969 0 8 3.582031 8 8s-3.582031 8-8 8c-13.253906 0-24 10.746094-24 24 0 4.417969-3.582031 8-8 8zm0 0" fill="#ff6283"/><path d="m72 448c-22.082031-.027344-39.972656-17.917969-40-40 0-4.417969 3.582031-8 8-8s8 3.582031 8 8c0 13.253906 10.746094 24 24 24 4.417969 0 8 3.582031 8 8s-3.582031 8-8 8zm0 0" fill="#88d3d1"/><path d="m408 448c-4.417969 0-8-3.582031-8-8s3.582031-8 8-8c13.253906 0 24-10.746094 24-24 0-4.417969 3.582031-8 8-8s8 3.582031 8 8c-.027344 22.082031-17.917969 39.972656-40 40zm0 0" fill="#88d3d1"/><path d="m224 80c4.417969 0 8-3.582031 8-8s-3.582031-8-8-8h-40c-4.417969 0-8 3.582031-8 8v32c0 4.417969 3.582031 8 8 8h32v16h-32c-4.417969 0-8 3.582031-8 8s3.582031 8 8 8h40c4.417969 0 8-3.582031 8-8v-32c0-4.417969-3.582031-8-8-8h-32v-16zm0 0" fill="#ee1442"/><path d="m296 64h-40c-4.417969 0-8 3.582031-8 8v64c0 4.417969 3.582031 8 8 8h40c4.417969 0 8-3.582031 8-8v-64c0-4.417969-3.582031-8-8-8zm-32 16h24v16h-24zm0 48v-16h24v16zm0 0" fill="#ee1442"/><path d="m315.457031 396.207031c-.40625 0-.8125-.03125-1.21875-.085937-4.367187-.667969-7.367187-4.746094-6.703125-9.113282l21.761719-142.863281c.660156-4.371093 4.742187-7.375 9.109375-6.710937 4.371094.660156 7.375 4.742187 6.714844 9.109375l-21.769532 142.871093c-.59375 3.902344-3.949218 6.789063-7.894531 6.792969zm0 0" fill="#ff6283"/><path d="m157.550781 402.0625c-3.617187-.003906-6.785156-2.4375-7.71875-5.933594l-.34375-1.289062-52.433593-134.183594c-1.605469-4.125.433593-8.777344 4.5625-10.382812 4.125-1.609376 8.773437.433593 10.382812 4.558593l52.550781 134.609375c.109375.277344.203125.558594.28125.847656l.457031 1.710938c.640626 2.402344.128907 4.96875-1.386718 6.941406-1.515625 1.96875-3.863282 3.125-6.351563 3.121094zm0 0" fill="#ff6283"/><path d="m408 0h-336c-39.746094.0429688-71.9570312 32.253906-72 72v336c.0429688 39.746094 32.253906 71.957031 72 72h336c39.746094-.042969 71.957031-32.253906 72-72v-336c-.042969-39.746094-32.253906-71.9570312-72-72zm0 464h-336c-30.914062-.035156-55.964844-25.085938-56-56v-288h96c4.417969 0 8-3.582031 8-8s-3.582031-8-8-8h-96v-32c.035156-30.914062 25.085938-55.964844 56-56h336c30.914062.035156 55.964844 25.085938 56 56v32h-96c-4.417969 0-8 3.582031-8 8s3.582031 8 8 8h96v288c-.035156 30.914062-25.085938 55.964844-56 56zm0 0"/><path d="m408 48c13.253906 0 24 10.746094 24 24 0 4.417969 3.582031 8 8 8s8-3.582031 8-8c-.027344-22.082031-17.917969-39.972656-40-40-4.417969 0-8 3.582031-8 8s3.582031 8 8 8zm0 0"/><path d="m72 32c-22.082031.027344-39.972656 17.917969-40 40 0 4.417969 3.582031 8 8 8s8-3.582031 8-8c0-13.253906 10.746094-24 24-24 4.417969 0 8-3.582031 8-8s-3.582031-8-8-8zm0 0"/><path d="m72 432c-13.253906 0-24-10.746094-24-24 0-4.417969-3.582031-8-8-8s-8 3.582031-8 8c.027344 22.082031 17.917969 39.972656 40 40 4.417969 0 8-3.582031 8-8s-3.582031-8-8-8zm0 0"/><path d="m440 400c-4.417969 0-8 3.582031-8 8 0 13.253906-10.746094 24-24 24-4.417969 0-8 3.582031-8 8s3.582031 8 8 8c22.082031-.027344 39.972656-17.917969 40-40 0-4.417969-3.582031-8-8-8zm0 0"/><path d="m224 80c4.417969 0 8-3.582031 8-8s-3.582031-8-8-8h-40c-4.417969 0-8 3.582031-8 8v32c0 4.417969 3.582031 8 8 8h32v16h-32c-4.417969 0-8 3.582031-8 8s3.582031 8 8 8h40c4.417969 0 8-3.582031 8-8v-32c0-4.417969-3.582031-8-8-8h-32v-16zm0 0"/><path d="m256 64c-4.417969 0-8 3.582031-8 8v64c0 4.417969 3.582031 8 8 8h40c4.417969 0 8-3.582031 8-8v-64c0-4.417969-3.582031-8-8-8zm8 16h24v16h-24zm0 48v-16h24v16zm0 0"/><path d="m176 176h128c22.082031-.027344 39.972656-17.917969 40-40v-64c0-4.417969-3.582031-8-8-8s-8 3.582031-8 8v64c0 13.253906-10.746094 24-24 24h-128c-13.253906 0-24-10.746094-24-24v-64c0-13.253906 10.746094-24 24-24h128c4.417969 0 8-3.582031 8-8s-3.582031-8-8-8h-128c-22.082031.027344-39.972656 17.917969-40 40v64c.027344 22.082031 17.917969 39.972656 40 40zm0 0"/><path d="m421.808594 269.464844c9.148437-34.144532-11.113282-69.238282-45.257813-78.386719-34.140625-9.144531-69.234375 11.117187-78.382812 45.257813-.078125.285156-.140625.574218-.183594.863281l-21.816406 143.242187c-.664063 4.367188 2.34375 8.449219 6.710937 9.109375 4.371094.664063 8.449219-2.339843 9.113282-6.710937l21.742187-142.777344c7.1875-25.195312 33.25-39.976562 58.5625-33.207031 25.316406 6.769531 40.519531 32.585937 34.167969 58.007812l-52.570313 134.570313c-.101562.261718-.191406.527344-.269531.796875-4.578125 17.074219-22.128906 27.207031-39.199219 22.625-4.261719-1.117188-8.625 1.417969-9.761719 5.671875-1.136718 4.253906 1.375 8.625 5.625 9.785156 4.078126 1.109375 8.285157 1.675781 12.511719 1.6875 21.519531-.070312 40.371094-14.425781 46.160157-35.152344l52.566406-134.550781c.109375-.273437.203125-.550781.28125-.832031zm0 0"/><path d="m315.457031 396.207031c3.945313-.003906 7.300781-2.890625 7.894531-6.792969l21.769532-142.871093c.660156-4.367188-2.34375-8.449219-6.714844-9.109375-4.367188-.664063-8.449219 2.339844-9.109375 6.710937l-21.761719 142.863281c-.664062 4.367188 2.335938 8.445313 6.703125 9.113282.40625.054687.8125.085937 1.21875.085937zm0 0"/><path d="m190.015625 237.199219c-.042969-.289063-.105469-.578125-.183594-.863281-9.148437-34.140626-44.242187-54.402344-78.382812-45.257813-34.144531 9.148437-54.40625 44.242187-45.257813 78.386719.078125.269531.171875.539062.28125.800781l52.726563 134.992187c1.609375 4.117188 6.25 6.152344 10.367187 4.542969 4.121094-1.609375 6.152344-6.25 4.546875-10.367187l-52.578125-134.53125c-6.351562-25.417969 8.851563-51.238282 34.167969-58.007813 25.3125-6.769531 51.375 8.011719 58.5625 33.210938l21.734375 142.734375c.046875.304687.113281.585937.183594.871094 4.578125 17.074218-5.550782 34.625-22.625 39.199218-2.773438.730469-4.941406 2.886719-5.691406 5.65625-.746094 2.765625.046874 5.722656 2.074218 7.746094 2.03125 2.027344 4.988282 2.808594 7.753906 2.054688 25.433594-6.832032 40.625-32.863282 34.074219-58.367188zm0 0"/><path d="m164.800781 390.289062c-.078125-.289062-.171875-.570312-.28125-.847656l-52.519531-134.609375c-1.609375-4.117187-6.25-6.148437-10.363281-4.539062-4.117188 1.605469-6.148438 6.246093-4.539063 10.363281l52.429688 134.183594.34375 1.289062c1.375 3.964844 5.578125 6.195313 9.628906 5.109375 4.054688-1.085937 6.582031-5.117187 5.789062-9.238281zm0 0"/></svg>